<svg width="512" height="512" viewBox="0 0 512 512" fill="none" xmlns="http://www.w3.org/2000/svg">
<path d="M0 256C0 141.754 0 84.6303 32.4797 46.8315C36.8952 41.6928 41.6928 36.8952 46.8315 32.4797C84.6303 0 141.754 0 256 0C370.246 0 427.37 0 465.169 32.4797C470.307 36.8952 475.105 41.6928 479.52 46.8315C512 84.6303 512 141.754 512 256C512 370.246 512 427.37 479.52 465.169C475.105 470.307 470.307 475.105 465.169 479.52C427.37 512 370.246 512 256 512C141.754 512 84.6303 512 46.8315 479.52C41.6928 475.105 36.8952 470.307 32.4797 465.169C0 427.37 0 370.246 0 256Z" fill="#791CE7"/>
<path d="M226.407 246.284C226.05 257.989 225.6 269.409 225.052 280.543C224.352 301.884 223.478 320.602 222.428 336.695C220.679 363.284 217.006 387.075 211.409 408.066C208.269 419.643 204.413 429.789 199.843 438.504H297.998V266.607C302.435 267.575 307.043 268.086 311.77 268.086C328.005 268.086 342.833 262.066 354.15 252.142V438.504H389.835V507.872C375.342 509.665 359.03 510.679 340.506 511.252V488.883H169.949V511.2C151.179 510.588 134.701 509.506 120.095 507.597V438.504H143.186C147.734 432.207 151.758 424.684 155.256 415.938C158.755 407.192 161.728 396.521 164.177 383.926C166.626 370.981 168.726 355.587 170.475 337.745C172.224 321.302 173.448 302.408 174.148 281.067C174.16 280.7 174.17 280.332 174.182 279.965C195.971 276.514 214.724 263.943 226.407 246.284Z" fill="white"/>
<path fill-rule="evenodd" clip-rule="evenodd" d="M171.065 135.673C208.676 135.673 239.165 166.164 239.165 203.775C239.165 241.385 208.675 271.875 171.065 271.875C133.454 271.875 102.964 241.385 102.963 203.775C102.963 166.163 133.454 135.673 171.065 135.673ZM171.062 185.107C160.752 185.107 152.395 193.465 152.395 203.775C152.395 214.084 160.753 222.442 171.062 222.442C181.372 222.442 189.731 214.084 189.731 203.775C189.731 193.464 181.372 185.107 171.062 185.107Z" fill="white"/>
<path fill-rule="evenodd" clip-rule="evenodd" d="M319.312 147.003C350.666 147.003 376.083 172.421 376.083 203.775C376.082 235.128 350.666 260.545 319.312 260.545C287.959 260.545 262.541 235.128 262.54 203.775C262.54 172.421 287.958 147.003 319.312 147.003ZM319.31 188.212C310.715 188.212 303.747 195.18 303.747 203.775C303.748 212.369 310.715 219.337 319.31 219.337C327.904 219.337 334.872 212.369 334.872 203.775C334.872 195.18 327.905 188.212 319.31 188.212Z" fill="white"/>
<path d="M354.15 155.403C342.833 145.479 328.005 139.462 311.77 139.462C307.043 139.462 302.435 139.971 297.998 140.939V129.404H228.913C228.857 133.897 228.796 138.445 228.727 143.049C228.619 150.121 228.493 157.227 228.353 164.364C217.343 145.873 198.822 132.376 176.998 128.082C177.273 110.305 177.547 93.6013 177.821 77.9736H354.15V155.403Z" fill="white"/>
</svg>
